<svg width="48" height="48" viewBox="0 0 48 48" fill="none" xmlns="http://www.w3.org/2000/svg">
<path d="M24 48C37.2548 48 48 37.2548 48 24C48 10.7452 37.2548 0 24 0C10.7452 0 0 10.7452 0 24C0 37.2548 10.7452 48 24 48Z" fill="#ECECEC"/>
<path d="M24 48C37.2548 48 48 37.2548 48 24C48 10.7452 37.2548 0 24 0C10.7452 0 0 10.7452 0 24C0 37.2548 10.7452 48 24 48Z" fill="#F1F4F6"/>
<mask id="mask0_1_29426" style="mask-type:alpha" maskUnits="userSpaceOnUse" x="1" y="1" width="46" height="46">
<path d="M24.0001 46.4001C36.3713 46.4001 46.4001 36.3713 46.4001 24.0001C46.4001 11.6289 36.3713 1.6001 24.0001 1.6001C11.6289 1.6001 1.6001 11.6289 1.6001 24.0001C1.6001 36.3713 11.6289 46.4001 24.0001 46.4001Z" fill="white"/>
</mask>
<g mask="url(#mask0_1_29426)">
<path d="M24.0001 46.4C36.3713 46.4 46.4001 36.3712 46.4001 24C46.4001 11.6288 36.3713 1.59998 24.0001 1.59998C11.6289 1.59998 1.6001 11.6288 1.6001 24C1.6001 36.3712 11.6289 46.4 24.0001 46.4Z" fill="#ECECEC"/>
<path d="M48 1.59998H0V10.56H48V1.59998Z" fill="#ECAC4C"/>
<path d="M48 10.5599H0V19.5199H48V10.5599Z" fill="#EB8C4A"/>
<path d="M48 19.52H0V28.48H48V19.52Z" fill="#EA6D4B"/>
<path d="M48 28.4801H0V37.4401H48V28.4801Z" fill="#E84C4C"/>
<path d="M48 37.4401H0V46.4001H48V37.4401Z" fill="#0C577C"/>
<path opacity="0.300525" d="M11.1356 22.0993C11.0102 22.1281 10.8875 22.168 10.769 22.2184L11.7341 17.4181C11.7828 17.1382 11.6785 16.8537 11.4604 16.6716C11.2424 16.4895 10.9438 16.4375 10.6771 16.5353C10.4104 16.633 10.2161 16.8656 10.1674 17.1455L7.03408 32.4988C6.9678 32.7727 7.05821 33.0608 7.26908 33.2477C7.48111 33.4277 7.76553 33.4973 8.03674 33.4357L8.11508 33.4138C8.3532 33.3365 8.53072 33.1362 8.57881 32.8905L10.0734 25.5992C10.3679 24.4086 10.8442 23.7192 11.4865 23.5814C12.2197 23.409 12.2887 23.7036 12.3325 23.8947C12.3692 24.1772 12.3533 24.464 12.2855 24.7407L10.8724 31.5181C10.8012 31.8003 10.893 32.0987 11.1105 32.292C11.3449 32.5015 11.6719 32.5728 11.9722 32.48C12.2057 32.4029 12.3771 32.2025 12.4171 31.9599L13.8334 25.0603C13.9599 24.5681 13.9706 24.0533 13.8647 23.5563C13.5796 22.3249 12.5362 21.7734 11.1356 22.0993ZM39.2134 26.392C39.3386 26.3607 39.4611 26.3199 39.58 26.2698L38.6243 31.0763C38.5762 31.3561 38.681 31.6404 38.8993 31.822C39.1176 32.0037 39.4162 32.055 39.6827 31.9568C39.9491 31.8585 40.1429 31.6256 40.191 31.3458L43.3024 15.9924C43.3694 15.7185 43.2789 15.4301 43.0674 15.2436C42.8554 15.0636 42.571 14.9939 42.2997 15.0556L42.2214 15.0775C41.9833 15.1548 41.8058 15.3551 41.7577 15.6008L40.285 22.8858C39.9905 24.0764 39.5173 24.7658 38.875 24.9068C38.1418 25.0791 38.0729 24.7814 38.0259 24.5934C37.9923 24.3107 38.0093 24.0242 38.076 23.7474L39.4797 16.9763C39.5509 16.6941 39.4591 16.3957 39.2416 16.2024C39.0084 15.9907 38.6808 15.918 38.3799 16.0112C38.1476 16.0901 37.977 16.2896 37.935 16.5314L36.5187 23.4247C36.3909 23.9221 36.3812 24.4425 36.4905 24.9444C36.7725 26.1664 37.8191 26.7178 39.2134 26.392ZM16.7505 19.7963C16.987 19.9739 17.2921 20.0328 17.5777 19.9561C18.0514 19.8307 18.411 19.4443 18.5021 18.9628C18.5944 18.5863 18.454 18.191 18.1449 17.957C17.814 17.6942 17.3536 17.6679 16.9949 17.8912C16.5695 18.1172 16.3221 18.5773 16.3683 19.0568C16.3783 19.3482 16.5186 19.6197 16.7505 19.7963ZM17.0639 20.9055C16.8555 20.8722 16.6425 20.9238 16.4724 21.0486C16.3023 21.1734 16.1892 21.361 16.1583 21.5698L14.2783 30.7943C14.191 31.0556 14.2603 31.3439 14.4569 31.5369C14.6837 31.7341 14.9927 31.8079 15.2841 31.7343L15.3656 31.7092C15.6002 31.6451 15.7792 31.4552 15.8293 31.2173L17.7093 21.8361C17.7492 21.625 17.7017 21.4067 17.5777 21.2313C17.4536 21.0558 17.2637 20.9383 17.0513 20.9055H17.0639ZM28.3439 18.261C27.9116 18.1763 27.492 18.4561 27.4039 18.8876L25.9594 25.9439V26.0034C25.9594 26.0254 25.6461 28.2563 24.3927 28.2563C24.1663 28.2774 23.9408 28.2075 23.7661 28.062C23.6623 27.8945 23.6171 27.6972 23.6376 27.5012C23.6564 27.4009 23.6721 27.3038 23.6846 27.2098L25.1259 20.1754C25.2028 19.8891 25.1155 19.5838 24.8989 19.3814C24.6824 19.179 24.3718 19.1125 24.0914 19.2085C23.8109 19.3046 23.6063 19.5475 23.5593 19.8402L22.1179 26.8745C22.0896 27.0015 22.0697 27.1302 22.0584 27.2599C21.9268 27.8615 21.5195 29.2308 20.5325 29.2308C20.3061 29.2512 20.0809 29.1813 19.9058 29.0365C19.7723 28.7777 19.7388 28.4787 19.8118 28.1968L21.2594 21.1342C21.3154 20.8544 21.2178 20.5659 21.0034 20.3775C20.789 20.1891 20.4904 20.1294 20.2201 20.2208C19.9497 20.3123 19.7487 20.541 19.6927 20.8209L18.2201 27.849C18.1887 27.9806 17.9318 29.1493 18.6149 30.0172C19.0781 30.5686 19.7763 30.8665 20.4949 30.8194C21.4801 30.8079 22.3843 30.2715 22.8668 29.4125C23.3065 29.7142 23.8318 29.8658 24.3645 29.8449C26.4764 29.8449 27.3381 27.592 27.5198 26.2353L28.9611 19.201C29.048 18.7714 28.7726 18.3519 28.3439 18.261ZM35.3187 16.663C35.2368 16.6488 35.153 16.6488 35.0711 16.663C34.7722 16.708 34.5271 16.9236 34.4445 17.2144C34.1283 17.0451 33.7717 16.9659 33.4136 16.9857C33.2025 16.9867 32.9923 17.012 32.7869 17.0609C32.6461 17.0948 32.5079 17.1388 32.3733 17.1925C31.2422 17.6374 30.4933 18.7404 30.1393 20.5608L29.9011 21.6763L29.6348 22.9296L29.4123 23.9856L29.1867 25.17C29.06 25.6678 29.0535 26.1888 29.1679 26.6896C29.4374 27.8051 30.3367 28.3127 31.1795 28.0746C31.6401 27.943 32.577 27.0312 32.5676 26.8212C32.5277 27.2179 32.7898 27.5822 33.1786 27.6704C33.3887 27.7165 33.6085 27.6761 33.7883 27.5582C33.9682 27.4402 34.0929 27.2548 34.1343 27.0437L34.7891 23.4278L35.9735 17.5685C36.0413 17.1379 35.7488 16.7335 35.3187 16.663ZM31.6683 20.9619C31.9566 19.5112 32.4485 18.6934 33.1316 18.5336C33.8679 18.3612 33.9369 18.6558 33.9807 18.8469C33.9821 18.8562 33.9821 18.8657 33.9807 18.8751C33.9684 19.0641 33.9464 19.2523 33.9149 19.4391L33.7363 20.423L33.4794 21.7014L33.3008 22.5975C33.1316 23.3871 32.8527 24.7908 32.6741 25.1042C32.5979 25.239 32.5018 25.3615 32.389 25.4676C32.1755 25.6601 31.9373 25.8234 31.6809 25.9533C30.9195 26.3669 30.7973 25.5616 31.0072 24.1391L31.4521 21.9896L31.6683 20.9619Z" fill="#033D56"/>
<path d="M9.88219 21.7859C9.75673 21.8148 9.63406 21.8546 9.51559 21.905L10.4807 17.1047C10.5294 16.8249 10.425 16.5403 10.207 16.3582C9.98901 16.1761 9.69041 16.1241 9.4237 16.2219C9.15699 16.3197 8.96269 16.5523 8.91399 16.8321L5.78066 32.1855C5.71439 32.4593 5.80479 32.7474 6.01566 32.9343C6.2277 33.1143 6.51211 33.184 6.78332 33.1223L6.86166 33.1004C7.09979 33.0231 7.2773 32.8228 7.32539 32.5771L8.81999 25.2859C9.11452 24.0952 9.59079 23.4059 10.2331 23.268C10.9663 23.0957 11.0353 23.3902 11.0791 23.5813C11.1158 23.8638 11.0998 24.1506 11.0321 24.4273L9.61586 31.211C9.54467 31.4932 9.63647 31.7916 9.85399 31.9849C10.0884 32.1944 10.4153 32.2657 10.7157 32.1729C10.9492 32.0958 11.1206 31.8954 11.1606 31.6528L12.58 24.7469C12.7064 24.2547 12.7172 23.74 12.6113 23.2429C12.3262 22.0115 11.2828 21.4601 9.88219 21.7859ZM37.96 26.0786C38.0852 26.0474 38.2077 26.0065 38.3266 25.9564L37.3709 30.7629C37.3228 31.0428 37.4276 31.3271 37.6459 31.5087C37.8642 31.6903 38.1628 31.7417 38.4292 31.6434C38.6957 31.5452 38.8895 31.3123 38.9376 31.0324L42.049 15.6791C42.116 15.4052 42.0255 15.1167 41.814 14.9302C41.602 14.7502 41.3175 14.6806 41.0463 14.7422L40.968 14.7641C40.7299 14.8414 40.5523 15.0417 40.5043 15.2874L39.0316 22.5724C38.7371 23.7631 38.2639 24.4524 37.6216 24.5934C36.8884 24.7657 36.8195 24.4681 36.7725 24.2801C36.7389 23.9973 36.7559 23.7109 36.8226 23.4341L38.2263 16.6629C38.2975 16.3807 38.2057 16.0824 37.9882 15.889C37.755 15.6773 37.4273 15.6046 37.1265 15.6979C36.8942 15.7768 36.7236 15.9763 36.6816 16.218L35.2653 23.1113C35.1374 23.6087 35.1278 24.1292 35.2371 24.631C35.5191 25.853 36.5657 26.4045 37.96 26.0786ZM15.4971 19.4829C15.7336 19.6605 16.0387 19.7195 16.3243 19.6427C16.798 19.5173 17.1576 19.1309 17.2487 18.6495C17.341 18.273 17.2006 17.8776 16.8915 17.6437C16.5606 17.3809 16.1002 17.3545 15.7415 17.5779C15.3161 17.8038 15.0687 18.2639 15.1149 18.7435C15.1249 19.0348 15.2652 19.3063 15.4971 19.4829ZM15.8105 20.5921C15.6021 20.5589 15.3891 20.6104 15.219 20.7352C15.0489 20.86 14.9358 21.0477 14.9049 21.2564L13.0249 30.4809C12.9384 30.7428 13.009 31.0312 13.2067 31.2235C13.4335 31.4208 13.7424 31.4945 14.0339 31.4209L14.1153 31.3959C14.3499 31.3318 14.5289 31.1419 14.5791 30.9039L16.4591 21.5227C16.4989 21.3111 16.451 21.0925 16.3263 20.9169C16.2016 20.7414 16.0108 20.6242 15.7979 20.5921H15.8105ZM27.0905 17.9476C26.6582 17.863 26.2386 18.1427 26.1505 18.5743L24.706 25.6305V25.6901C24.706 25.712 24.3927 27.9429 23.1393 27.9429C22.9129 27.964 22.6874 27.8941 22.5127 27.7487C22.4089 27.5811 22.3637 27.3838 22.3842 27.1878C22.403 27.0875 22.4187 26.9904 22.4312 26.8964L23.8725 19.8621C23.9494 19.5758 23.8621 19.2704 23.6455 19.068C23.429 18.8656 23.1184 18.7991 22.8379 18.8952C22.5575 18.9912 22.3529 19.2341 22.3059 19.5268L20.8645 26.5611C20.8362 26.6881 20.8163 26.8169 20.805 26.9465C20.6734 27.5481 20.2661 28.9174 19.2791 28.9174C19.0527 28.9378 18.8275 28.868 18.6524 28.7231C18.5189 28.4643 18.4854 28.1653 18.5584 27.8834L20.006 20.8209C20.062 20.541 19.9644 20.2526 19.75 20.0641C19.5356 19.8757 19.237 19.816 18.9667 19.9075C18.6963 19.9989 18.4953 20.2277 18.4393 20.5075L16.9667 27.5356C16.9353 27.6672 16.6784 28.8359 17.3615 29.7039C17.8247 30.2552 18.5228 30.5531 19.2415 30.506C20.2267 30.4945 21.1309 29.9582 21.6134 29.0991C22.053 29.4008 22.5783 29.5525 23.1111 29.5315C25.223 29.5315 26.0847 27.2787 26.2664 25.9219L27.7077 18.8876C27.7946 18.458 27.5192 18.0386 27.0905 17.9476ZM34.0653 16.3496C33.9834 16.3355 33.8996 16.3355 33.8177 16.3496C33.5188 16.3946 33.2737 16.6103 33.1911 16.9011C32.8749 16.7317 32.5183 16.6526 32.1602 16.6723C31.9491 16.6734 31.7389 16.6986 31.5335 16.7475C31.3927 16.7814 31.2545 16.8254 31.1199 16.8791C29.9888 17.3241 29.2399 18.427 28.8859 20.2475L28.6477 21.3629L28.3814 22.6163L28.1589 23.6722L27.9333 24.8566C27.8065 25.3545 27.8001 25.8754 27.9145 26.3763C28.184 27.4917 29.0833 27.9993 29.9261 27.7612C30.3867 27.6296 31.3236 26.7178 31.3142 26.5079C31.2743 26.9046 31.5363 27.2688 31.9252 27.357C32.1353 27.4032 32.3551 27.3627 32.5349 27.2448C32.7148 27.1269 32.8395 26.9414 32.8809 26.7303L33.5357 23.1145L34.7201 17.2551C34.7879 16.8246 34.4954 16.4201 34.0653 16.3496ZM30.4149 20.6485C30.7032 19.1978 31.1951 18.38 31.8782 18.2202C32.6145 18.0479 32.6835 18.3424 32.7273 18.5335C32.7287 18.5429 32.7287 18.5524 32.7273 18.5617C32.715 18.7507 32.693 18.939 32.6615 19.1257L32.4829 20.1096L32.226 21.388L32.0474 22.2841C31.8782 23.0737 31.5993 24.4775 31.4207 24.7908C31.3445 24.9256 31.2484 25.0482 31.1356 25.1543C30.9221 25.3467 30.6839 25.5101 30.4275 25.6399C29.6661 26.0535 29.5439 25.2483 29.7538 23.8257L30.1987 21.6763L30.4149 20.6485Z" fill="white"/>
</g>
</svg>
