<svg width="1em" height="1em" fill="currentColor" viewBox="0 0 14 16" xmlns="http://www.w3.org/2000/svg">
<path fill-rule="evenodd" clip-rule="evenodd" d="M10.6245 1.91159C9.66281 0.951148 8.35885 0.412302 6.99973 0.413699L6.99946 0.413699C5.10506 0.414824 3.45196 1.44457 2.56731 2.97221C2.13061 3.72632 1.88074 4.6021 1.88057 5.5347V5.53479V8.44577L0.978528 9.34853L0.977984 9.34908C0.569012 9.75577 0.338553 10.3084 0.337433 10.8852V10.8878C0.341059 12.0361 1.27296 12.9651 2.42129 12.9652H2.42143L11.5851 12.9677H11.5852C12.7336 12.9677 13.6656 12.0387 13.6692 10.8903L13.6692 10.8881C13.6685 10.3113 13.4384 9.75855 13.0296 9.35169L13.0291 9.35121L12.1269 8.44827V5.53479V5.5347C12.1267 4.17548 11.5862 2.8721 10.6245 1.91159ZM7.00054 1.4137C8.09439 1.41252 9.14385 1.84617 9.9178 2.61914C10.6917 3.3921 11.1267 4.44098 11.1269 5.53479V5.53488V8.65526C11.1269 8.7878 11.1796 8.91492 11.2732 9.00867L12.3228 10.0591L12.3239 10.0602C12.5444 10.2795 12.6686 10.5774 12.6692 10.8883C12.6667 11.4851 12.1823 11.9676 11.5854 11.9677H11.5852L2.42156 11.9652H2.42142C1.82451 11.9652 1.34 11.4826 1.33743 10.8859C1.33838 10.5749 1.46282 10.2771 1.68341 10.0579L1.68466 10.0566L2.73427 9.00617C2.82795 8.91242 2.88057 8.7853 2.88057 8.65276V5.53488V5.53479C2.88072 4.78281 3.08179 4.07928 3.43268 3.47335C4.14601 2.24155 5.47677 1.41452 7.00027 1.4137L7.00054 1.4137ZM5.767 14.5863H5.267V15.5863H5.767H8.23219H8.73219V14.5863H8.23219H5.767Z" />
</svg>
