<svg aria-hidden="true" style="position: absolute; width: 0; height: 0; overflow: hidden;" version="1.1" xmlns="http://www.w3.org/2000/svg" xmlns:xlink="http://www.w3.org/1999/xlink">
<defs>
<symbol id="avatar" viewBox="0 0 32 32">
<path fill="#3779be" style="fill: var(--color1, #3779be)" d="M16 0c8.837 0 16 7.163 16 16s-7.163 16-16 16c-8.837 0-16-7.163-16-16s7.163-16 16-16z"></path>
<path fill="#fff" style="fill: var(--color2, #fff)" d="M16 16c2.21 0 4-1.79 4-4s-1.79-4-4-4c-2.21 0-4 1.79-4 4s1.79 4 4 4zM16 18c-2.67 0-8 1.34-8 4v2h16v-2c0-2.66-5.33-4-8-4z"></path>
</symbol>
<symbol id="icon-pdf" viewBox="0 0 32 32">
<path fill="#e24547" style="fill: var(--color1, #e24547)" opacity="0.150646" d="M16 23.684v-15.111h9.778c0.491 0 0.889 0.398 0.889 0.889v13.333c0 0.491-0.398 0.889-0.889 0.889h-9.778z"></path>
<path fill="#e24547" style="fill: var(--color1, #e24547)" d="M16.444 5.333c0.736 0 1.333 0.597 1.333 1.333v4.572l1.245 0c0.295 0 0.533 0.239 0.533 0.533v5.156c0 0.295-0.239 0.533-0.533 0.533l-1.245-0v0.889l4 0c0.245 0 0.445 0.199 0.445 0.444s-0.199 0.445-0.445 0.445l-4-0.001v0.889l2.222 0c0.245 0 0.444 0.199 0.444 0.445s-0.199 0.444-0.444 0.444l-2.222-0v3.684c0 0.063-0.004 0.125-0.013 0.187l-0.017 0.092c-0.154 0.72-0.863 1.179-1.583 1.024l-10.129-2.171c-0.41-0.088-0.703-0.45-0.703-0.869v-14.563c0-0.419 0.293-0.781 0.703-0.869l10.129-2.171c0.092-0.020 0.185-0.030 0.279-0.030zM24.444 20.128c0.245 0 0.445 0.199 0.445 0.445s-0.199 0.444-0.445 0.444h-2.667c-0.245 0-0.444-0.199-0.444-0.444s0.199-0.445 0.444-0.445h2.667zM24.444 18.351c0.245 0 0.445 0.199 0.445 0.444s-0.199 0.445-0.445 0.445h-0.889c-0.245 0-0.445-0.199-0.445-0.445s0.199-0.444 0.445-0.444h0.889zM24.444 16.573c0.245 0 0.445 0.199 0.445 0.444s-0.199 0.444-0.445 0.444h-3.555c-0.245 0-0.445-0.199-0.445-0.444s0.199-0.444 0.445-0.444h3.555zM20.889 14.795c0.245 0 0.444 0.199 0.444 0.445s-0.199 0.444-0.444 0.444c-0.245 0-0.445-0.199-0.445-0.444s0.199-0.445 0.445-0.445zM24.444 14.795c0.245 0 0.445 0.199 0.445 0.445s-0.199 0.444-0.445 0.444h-1.778c-0.245 0-0.444-0.199-0.444-0.444s0.199-0.445 0.444-0.445h1.778zM24.444 13.017c0.245 0 0.445 0.199 0.445 0.444s-0.199 0.445-0.445 0.445h-3.555c-0.245 0-0.445-0.199-0.445-0.445s0.199-0.444 0.445-0.444h3.555zM22.667 11.24c0.245 0 0.444 0.199 0.444 0.444s-0.199 0.444-0.444 0.444h-1.778c-0.245 0-0.445-0.199-0.445-0.444s0.199-0.444 0.445-0.444h1.778z"></path>
<path fill="#fff" style="fill: var(--color2, #fff)" d="M7.918 20.968c-0.134 0-0.263-0.044-0.372-0.126-0.401-0.301-0.455-0.635-0.429-0.863 0.070-0.627 0.845-1.283 2.305-1.952 0.579-1.269 1.13-2.833 1.459-4.14-0.384-0.836-0.758-1.922-0.486-2.558 0.095-0.223 0.214-0.394 0.437-0.468 0.088-0.029 0.31-0.066 0.391-0.066 0.194 0 0.365 0.25 0.486 0.404 0.114 0.145 0.371 0.452-0.144 2.619 0.519 1.072 1.255 2.164 1.959 2.912 0.505-0.091 0.939-0.138 1.293-0.138 0.603 0 0.968 0.141 1.117 0.43 0.123 0.239 0.073 0.519-0.15 0.832-0.215 0.3-0.51 0.459-0.855 0.459-0.468 0-1.014-0.296-1.622-0.88-1.093 0.228-2.368 0.636-3.4 1.087-0.322 0.683-0.63 1.233-0.918 1.637-0.395 0.553-0.735 0.811-1.072 0.811zM8.943 18.994c-0.823 0.462-1.158 0.843-1.183 1.057-0.004 0.035-0.014 0.129 0.166 0.267 0.057-0.018 0.392-0.171 1.017-1.323zM14.195 17.283c0.314 0.241 0.391 0.364 0.596 0.364 0.090 0 0.347-0.004 0.466-0.17 0.057-0.081 0.080-0.132 0.089-0.16-0.047-0.025-0.11-0.076-0.452-0.076-0.195 0-0.439 0.009-0.698 0.042zM11.318 14.749c-0.275 0.953-0.639 1.981-1.030 2.913 0.805-0.312 1.68-0.585 2.502-0.778-0.52-0.604-1.039-1.358-1.472-2.135zM11.085 11.49c-0.038 0.013-0.512 0.677 0.037 1.238 0.365-0.814-0.020-1.244-0.037-1.238z"></path>
</symbol>
<symbol id="eventTwoTone" viewBox="0 0 32 32">
<path fill="#cfd8dc" style="fill: var(--color3, #cfd8dc)" opacity="0.3" d="M6.667 10.667h18.667v-2.667h-18.667v2.667z"></path>
<path fill="#90a4ae" style="fill: var(--color4, #90a4ae)" d="M25.333 5.333h-1.333v-2.667h-2.667v2.667h-10.667v-2.667h-2.667v2.667h-1.333c-1.48 0-2.653 1.2-2.653 2.667l-0.013 18.667c0 1.467 1.187 2.667 2.667 2.667h18.667c1.467 0 2.667-1.2 2.667-2.667v-18.667c0-1.467-1.2-2.667-2.667-2.667zM25.333 26.667h-18.667v-13.333h18.667v13.333zM25.333 10.667h-18.667v-2.667h18.667v2.667zM16 17.333h6.667v6.667h-6.667v-6.667z"></path>
</symbol>
<symbol id="schoolTwoTone" viewBox="0 0 32 32">
<path fill="#cfd8dc" style="fill: var(--color3, #cfd8dc)" opacity="0.3" d="M9.334 16.36v4.96l6.667 3.64 6.667-3.64v-4.96l-6.667 3.64-6.667-3.64zM6.907 12l9.093 4.96 9.093-4.96-9.093-4.96-9.093 4.96z"></path>
<path fill="#90a4ae" style="fill: var(--color4, #90a4ae)" d="M16 4l-14.667 8 5.333 2.907v8l9.333 5.093 9.333-5.093v-8l2.667-1.453v9.213h2.667v-10.667l-14.667-8zM22.667 21.32l-6.667 3.64-6.667-3.64v-4.96l6.667 3.64 6.667-3.64v4.96zM16 16.96l-9.093-4.96 9.093-4.96 9.093 4.96-9.093 4.96z"></path>
</symbol>
<symbol id="groupsTwoTone" viewBox="0 0 32 32">
<path fill="#90a4ae" style="fill: var(--color4, #90a4ae)" opacity="0.09" d="M10.76 21.333c0.12-0.307 0.173-0.52 1.213-0.92 1.293-0.507 2.653-0.747 4.027-0.747s2.733 0.24 4.027 0.747c1.027 0.4 1.080 0.613 1.213 0.92h-10.48zM16 10.667c0.733 0 1.333 0.6 1.333 1.333s-0.6 1.333-1.333 1.333c-0.733 0-1.333-0.6-1.333-1.333s0.6-1.333 1.333-1.333z"></path>
<path fill="#90a4ae" style="fill: var(--color4, #90a4ae)" d="M5.333 17.333c1.467 0 2.667-1.2 2.667-2.667s-1.2-2.667-2.667-2.667c-1.467 0-2.667 1.2-2.667 2.667s1.2 2.667 2.667 2.667zM6.84 18.8c-0.493-0.080-0.987-0.133-1.507-0.133-1.32 0-2.573 0.28-3.707 0.773-0.987 0.427-1.627 1.387-1.627 2.467v2.093h6v-2.147c0-1.107 0.307-2.147 0.84-3.053zM26.667 17.333c1.467 0 2.667-1.2 2.667-2.667s-1.2-2.667-2.667-2.667c-1.467 0-2.667 1.2-2.667 2.667s1.2 2.667 2.667 2.667zM32 21.907c0-1.080-0.64-2.040-1.627-2.467-1.133-0.493-2.387-0.773-3.707-0.773-0.52 0-1.013 0.053-1.507 0.133 0.533 0.907 0.84 1.947 0.84 3.053v2.147h6v-2.093zM21.653 18.2c-1.56-0.693-3.48-1.2-5.653-1.2s-4.093 0.52-5.653 1.2c-1.44 0.64-2.347 2.080-2.347 3.653v2.147h16v-2.147c0-1.573-0.907-3.013-2.347-3.653zM10.76 21.333c0.12-0.307 0.173-0.52 1.213-0.92 1.293-0.507 2.653-0.747 4.027-0.747s2.733 0.24 4.027 0.747c1.027 0.4 1.080 0.613 1.213 0.92h-10.48zM16 10.667c0.733 0 1.333 0.6 1.333 1.333s-0.6 1.333-1.333 1.333c-0.733 0-1.333-0.6-1.333-1.333s0.6-1.333 1.333-1.333zM16 8c-2.213 0-4 1.787-4 4s1.787 4 4 4c2.213 0 4-1.787 4-4s-1.787-4-4-4z"></path>
</symbol>
<symbol id="documentScannerTwoTone" viewBox="0 0 32 32">
<path fill="#cfd8dc" style="fill: var(--color3, #cfd8dc)" opacity="0.3" d="M9.333 8v16h13.333v-16h-13.333zM20 21.333h-8v-2.667h8v2.667zM20 17.333h-8v-2.667h8v2.667zM20 13.333h-8v-2.667h8v2.667z"></path>
<path fill="#90a4ae" style="fill: var(--color4, #90a4ae)" d="M9.333 4h-4v4h-2.667v-6.667h6.667v2.667zM29.333 8v-6.667h-6.667v2.667h4v4h2.667zM9.333 28h-4v-4h-2.667v6.667h6.667v-2.667zM26.667 24v4h-4v2.667h6.667v-6.667h-2.667zM22.667 8h-13.333v16h13.333v-16zM25.333 24c0 1.467-1.2 2.667-2.667 2.667h-13.333c-1.467 0-2.667-1.2-2.667-2.667v-16c0-1.467 1.2-2.667 2.667-2.667h13.333c1.467 0 2.667 1.2 2.667 2.667v16zM20 10.667h-8v2.667h8v-2.667zM20 14.667h-8v2.667h8v-2.667zM20 18.667h-8v2.667h8v-2.667z"></path>
</symbol>
<symbol id="receiptLongTwoTone" viewBox="0 0 32 32">
<path fill="#cfd8dc" style="fill: var(--color3, #cfd8dc)" opacity="0.3" d="M25.333 25.333c0 0.733-0.6 1.333-1.333 1.333s-1.333-0.6-1.333-1.333v-4h-12v-14.667h14.667v18.667z"></path>
<path fill="#90a4ae" style="fill: var(--color4, #90a4ae)" d="M26 4.667l-2-2-2 2-2-2-2 2-2-2-2 2-2-2-2 2-2-2v18.667h-4v4c0 2.213 1.787 4 4 4h16c2.213 0 4-1.787 4-4v-22.667l-2 2zM25.333 25.333c0 0.733-0.6 1.333-1.333 1.333s-1.333-0.6-1.333-1.333v-4h-12v-14.667h14.667v18.667z"></path>
<path fill="#90a4ae" style="fill: var(--color4, #90a4ae)" d="M20 9.333h-8v2.667h8v-2.667z"></path>
<path fill="#90a4ae" style="fill: var(--color4, #90a4ae)" d="M24 9.333h-2.667v2.667h2.667v-2.667z"></path>
<path fill="#90a4ae" style="fill: var(--color4, #90a4ae)" d="M20 13.333h-8v2.667h8v-2.667z"></path>
<path fill="#90a4ae" style="fill: var(--color4, #90a4ae)" d="M24 13.333h-2.667v2.667h2.667v-2.667z"></path>
</symbol>
<symbol id="euroSymbolTwoTone" viewBox="0 0 32 32">
<path fill="#90a4ae" style="fill: var(--color4, #90a4ae)" d="M20 24.667c-3.347 0-6.24-1.893-7.68-4.667h7.68v-2.667h-8.56c-0.067-0.44-0.107-0.88-0.107-1.333s0.040-0.893 0.107-1.333h8.56v-2.667h-7.68c1.44-2.773 4.347-4.667 7.68-4.667 2.147 0 4.12 0.787 5.64 2.093l2.36-2.36c-2.12-1.907-4.933-3.067-8-3.067-5.227 0-9.653 3.347-11.307 8h-4.693v2.667h4.080c-0.053 0.44-0.080 0.88-0.080 1.333s0.027 0.893 0.080 1.333h-4.080v2.667h4.693c1.653 4.653 6.080 8 11.307 8 3.080 0 5.88-1.16 8-3.067l-2.373-2.36c-1.507 1.307-3.467 2.093-5.627 2.093z"></path>
</symbol>
<symbol id="businessCenterTwoTone" viewBox="0 0 32 32">
<path fill="#cfd8dc" style="fill: var(--color3, #cfd8dc)" opacity="0.3" d="M20 22.667h-8v-1.333h-5.333v4h18.667v-4h-5.333v1.333zM5.333 18.667h6.667v-4h8v4h6.667v-6.667h-21.333v6.667z"></path>
<path fill="#90a4ae" style="fill: var(--color4, #90a4ae)" d="M26.667 9.333h-5.333v-2.667l-2.667-2.667h-5.333l-2.667 2.667v2.667h-5.333c-1.467 0-2.667 1.2-2.667 2.667v6.667c0 1 0.533 1.84 1.333 2.307v4.36c0 1.48 1.187 2.667 2.667 2.667h18.667c1.48 0 2.667-1.187 2.667-2.667v-4.373c0.787-0.467 1.333-1.32 1.333-2.293v-6.667c0-1.467-1.2-2.667-2.667-2.667zM13.333 6.667h5.333v2.667h-5.333v-2.667zM25.333 25.333h-18.667v-4h5.333v1.333h8v-1.333h5.333v4zM14.667 20v-2.667h2.667v2.667h-2.667zM26.667 18.667h-6.667v-4h-8v4h-6.667v-6.667h21.333v6.667z"></path>
</symbol>
<symbol id="insertChartTwoTone" viewBox="0 0 32 32">
<path fill="#cfd8dc" style="fill: var(--color3, #cfd8dc)" opacity="0.3" d="M25.333 6.667h-18.667v18.667h18.667v-18.667zM12 22.667h-2.667v-9.333h2.667v9.333zM17.333 22.667h-2.667v-13.333h2.667v13.333zM22.667 22.667h-2.667v-5.333h2.667v5.333z"></path>
<path fill="#90a4ae" style="fill: var(--color4, #90a4ae)" d="M4 6.667v18.667c0 1.467 1.2 2.667 2.667 2.667h18.667c1.467 0 2.667-1.2 2.667-2.667v-18.667c0-1.467-1.2-2.667-2.667-2.667h-18.667c-1.467 0-2.667 1.2-2.667 2.667zM6.667 6.667h18.667v18.667h-18.667v-18.667zM9.333 13.333h2.667v9.333h-2.667v-9.333zM14.667 9.333h2.667v13.333h-2.667v-13.333zM20 17.333h2.667v5.333h-2.667v-5.333z"></path>
</symbol>
<symbol id="accountBalanceTwoTone" viewBox="0 0 32 32">
<path fill="#cfd8dc" style="fill: var(--color3, #cfd8dc)" opacity="0.3" d="M8.387 8l6.947-3.653 6.947 3.653h-13.893z"></path>
<path fill="#90a4ae" style="fill: var(--color4, #90a4ae)" d="M8.667 13.333h-2.667v9.333h2.667v-9.333zM16.667 13.333h-2.667v9.333h2.667v-9.333zM28 25.333h-25.333v2.667h25.333v-2.667zM24.667 13.333h-2.667v9.333h2.667v-9.333zM15.333 1.333l-12.667 6.667v2.667h25.333v-2.667l-12.667-6.667zM8.387 8l6.947-3.653 6.947 3.653h-13.893z"></path>
</symbol>
<symbol id="hiway-logo" viewBox="0 0 63 32">
<path d="M8.799 12.721c-0.21 0.049-0.415 0.116-0.613 0.201l1.615-8.087c0.082-0.471-0.093-0.951-0.458-1.258s-0.865-0.394-1.311-0.23-0.772 0.557-0.853 1.028l-5.244 25.867c-0.111 0.461 0.040 0.947 0.393 1.262 0.355 0.303 0.831 0.421 1.285 0.317l0.131-0.037c0.399-0.13 0.696-0.468 0.776-0.882l2.501-12.284c0.493-2.006 1.29-3.167 2.365-3.4 1.227-0.29 1.342 0.206 1.416 0.528 0.061 0.476 0.035 0.959-0.079 1.425l-2.37 11.429c-0.119 0.475 0.034 0.978 0.398 1.304 0.392 0.353 0.939 0.473 1.442 0.317 0.391-0.13 0.678-0.468 0.745-0.876l2.375-11.635c0.212-0.829 0.23-1.697 0.052-2.534-0.477-2.075-2.223-3.004-4.567-2.455zM55.787 19.953c0.209-0.053 0.415-0.121 0.614-0.206l-1.599 8.098c-0.081 0.472 0.095 0.95 0.46 1.256s0.865 0.392 1.311 0.227c0.446-0.165 0.77-0.558 0.851-1.029l5.207-25.867c0.112-0.461-0.039-0.947-0.393-1.262-0.355-0.303-0.831-0.421-1.285-0.317l-0.131 0.037c-0.399 0.13-0.696 0.468-0.776 0.882l-2.465 12.273c-0.493 2.006-1.285 3.167-2.36 3.405-1.227 0.29-1.342-0.211-1.421-0.528-0.056-0.476-0.028-0.959 0.084-1.425l2.349-11.408c0.119-0.475-0.035-0.978-0.399-1.304-0.39-0.357-0.939-0.479-1.442-0.322-0.389 0.133-0.674 0.469-0.745 0.876l-2.37 11.614c-0.214 0.838-0.23 1.715-0.047 2.56 0.472 2.059 2.223 2.988 4.557 2.439zM18.195 8.841c0.396 0.299 0.906 0.399 1.384 0.269 0.793-0.211 1.394-0.862 1.547-1.673 0.154-0.634-0.081-1.3-0.598-1.695-0.554-0.443-1.324-0.487-1.924-0.111-0.712 0.381-1.126 1.156-1.049 1.964 0.017 0.491 0.252 0.948 0.64 1.246zM18.72 10.71c-0.349-0.056-0.705 0.031-0.99 0.241s-0.474 0.526-0.526 0.878l-3.146 15.541c-0.145 0.441-0.027 0.927 0.304 1.251 0.38 0.332 0.897 0.457 1.384 0.333l0.136-0.042c0.393-0.108 0.692-0.428 0.776-0.829l3.146-15.805c0.067-0.357-0.014-0.725-0.222-1.021s-0.528-0.493-0.884-0.547h0.021zM37.597 6.254c-0.723-0.143-1.426 0.329-1.573 1.056l-2.417 11.888v0.1c0 0.037-0.524 3.796-2.622 3.796-0.379 0.036-0.756-0.082-1.049-0.327-0.174-0.282-0.249-0.615-0.215-0.945 0.031-0.169 0.058-0.333 0.079-0.491l2.412-11.851c0.129-0.482-0.017-0.997-0.38-1.338s-0.882-0.453-1.352-0.291c-0.469 0.162-0.812 0.571-0.89 1.064l-2.412 11.851c-0.047 0.214-0.081 0.431-0.1 0.649-0.22 1.014-0.902 3.32-2.554 3.32-0.379 0.034-0.756-0.083-1.049-0.327-0.223-0.436-0.279-0.94-0.157-1.415l2.423-11.899c0.094-0.471-0.070-0.957-0.428-1.275s-0.858-0.418-1.311-0.264c-0.452 0.154-0.789 0.539-0.882 1.011l-2.465 11.841c-0.052 0.222-0.482 2.191 0.661 3.653 0.775 0.929 1.944 1.431 3.146 1.351 1.649-0.019 3.162-0.923 3.969-2.37 0.736 0.508 1.615 0.764 2.506 0.728 3.534 0 4.976-3.796 5.28-6.081l2.412-11.851c0.145-0.724-0.316-1.43-1.033-1.584zM49.269 3.562c-0.137-0.024-0.277-0.024-0.414 0-0.5 0.076-0.91 0.439-1.049 0.929-0.529-0.285-1.126-0.419-1.725-0.385-0.353 0.002-0.705 0.044-1.049 0.127-0.236 0.057-0.467 0.131-0.692 0.222-1.893 0.75-3.146 2.608-3.739 5.675l-0.399 1.879-0.446 2.112-0.372 1.779-0.378 1.995c-0.212 0.839-0.223 1.716-0.031 2.56 0.451 1.879 1.956 2.734 3.366 2.333 0.771-0.222 2.339-1.758 2.323-2.112-0.067 0.668 0.372 1.282 1.023 1.431 0.352 0.078 0.719 0.010 1.020-0.189s0.51-0.511 0.579-0.867l1.096-6.092 1.982-9.872c0.113-0.725-0.376-1.407-1.096-1.526zM43.16 10.805c0.482-2.444 1.306-3.822 2.449-4.091 1.232-0.29 1.348 0.206 1.421 0.528 0.002 0.016 0.002 0.032 0 0.048-0.021 0.318-0.057 0.636-0.11 0.95l-0.299 1.658-0.43 2.154-0.299 1.51c-0.283 1.33-0.75 3.695-1.049 4.223-0.128 0.227-0.288 0.434-0.477 0.612-0.357 0.324-0.756 0.599-1.185 0.818-1.274 0.697-1.479-0.66-1.127-3.056l0.745-3.621 0.362-1.732z"></path>
<path d="M7.178 11.904c-0.21 0.049-0.415 0.116-0.614 0.201l1.615-8.087c0.081-0.471-0.093-0.951-0.458-1.258s-0.865-0.394-1.311-0.23c-0.446 0.165-0.771 0.557-0.853 1.028l-5.244 25.867c-0.111 0.461 0.040 0.947 0.393 1.262 0.355 0.303 0.831 0.421 1.285 0.317l0.131-0.037c0.398-0.13 0.696-0.468 0.776-0.882l2.501-12.284c0.493-2.006 1.29-3.167 2.365-3.4 1.227-0.29 1.342 0.206 1.416 0.528 0.061 0.476 0.035 0.959-0.079 1.425l-2.37 11.429c-0.119 0.475 0.034 0.978 0.399 1.304 0.392 0.353 0.939 0.473 1.442 0.317 0.391-0.13 0.678-0.468 0.745-0.876l2.375-11.635c0.212-0.829 0.23-1.696 0.052-2.534-0.477-2.075-2.223-3.004-4.567-2.455zM54.167 19.136c0.209-0.053 0.415-0.121 0.613-0.206l-1.599 8.098c-0.081 0.471 0.095 0.95 0.46 1.256s0.865 0.393 1.311 0.227 0.77-0.558 0.851-1.029l5.207-25.867c0.112-0.461-0.039-0.947-0.393-1.262-0.355-0.303-0.831-0.421-1.285-0.317l-0.131 0.037c-0.398 0.13-0.696 0.468-0.776 0.882l-2.464 12.274c-0.493 2.006-1.285 3.167-2.36 3.405-1.227 0.29-1.342-0.211-1.421-0.528-0.056-0.476-0.028-0.959 0.084-1.425l2.349-11.408c0.119-0.475-0.034-0.978-0.398-1.304-0.39-0.357-0.939-0.479-1.442-0.322-0.389 0.133-0.674 0.469-0.745 0.876l-2.37 11.614c-0.214 0.838-0.23 1.715-0.047 2.56 0.472 2.059 2.223 2.988 4.557 2.439zM16.575 8.024c0.396 0.299 0.906 0.398 1.384 0.269 0.793-0.211 1.394-0.862 1.547-1.673 0.154-0.634-0.080-1.3-0.598-1.695-0.554-0.443-1.324-0.487-1.924-0.111-0.712 0.381-1.126 1.156-1.049 1.964 0.017 0.491 0.252 0.948 0.64 1.246zM17.099 9.893c-0.349-0.056-0.705 0.031-0.99 0.241s-0.474 0.526-0.526 0.878l-3.146 15.541c-0.145 0.441-0.027 0.927 0.304 1.251 0.38 0.332 0.897 0.457 1.384 0.333l0.136-0.042c0.393-0.108 0.692-0.428 0.776-0.829l3.146-15.805c0.067-0.356-0.014-0.725-0.222-1.021s-0.528-0.493-0.884-0.547h0.021zM35.977 5.437c-0.723-0.143-1.426 0.329-1.573 1.056l-2.417 11.888v0.1c0 0.037-0.524 3.796-2.622 3.796-0.379 0.036-0.756-0.082-1.049-0.327-0.174-0.282-0.249-0.615-0.215-0.945 0.031-0.169 0.058-0.333 0.079-0.491l2.412-11.851c0.129-0.482-0.017-0.997-0.38-1.338s-0.882-0.453-1.351-0.291-0.812 0.571-0.89 1.064l-2.412 11.851c-0.047 0.214-0.081 0.431-0.1 0.649-0.22 1.014-0.902 3.32-2.554 3.32-0.379 0.034-0.756-0.083-1.049-0.327-0.223-0.436-0.279-0.94-0.157-1.415l2.423-11.899c0.094-0.471-0.070-0.957-0.428-1.275s-0.858-0.418-1.311-0.264c-0.452 0.154-0.789 0.539-0.883 1.011l-2.465 11.841c-0.052 0.222-0.482 2.191 0.661 3.653 0.775 0.929 1.944 1.431 3.146 1.351 1.649-0.019 3.162-0.923 3.969-2.37 0.736 0.508 1.615 0.764 2.506 0.729 3.534 0 4.976-3.796 5.28-6.081l2.412-11.851c0.145-0.724-0.315-1.43-1.033-1.584zM47.649 2.745c-0.137-0.024-0.277-0.024-0.414 0-0.5 0.076-0.91 0.439-1.049 0.929-0.529-0.285-1.126-0.419-1.725-0.385-0.353 0.002-0.705 0.044-1.049 0.127-0.236 0.057-0.467 0.131-0.692 0.222-1.893 0.75-3.146 2.608-3.739 5.675l-0.399 1.879-0.446 2.112-0.372 1.779-0.378 1.995c-0.212 0.839-0.223 1.716-0.031 2.56 0.451 1.879 1.956 2.734 3.366 2.333 0.771-0.222 2.339-1.758 2.323-2.112-0.067 0.668 0.372 1.282 1.022 1.431 0.352 0.078 0.719 0.010 1.020-0.189s0.51-0.511 0.579-0.867l1.096-6.092 1.982-9.872c0.113-0.725-0.376-1.407-1.096-1.526zM41.54 9.988c0.482-2.444 1.306-3.822 2.449-4.091 1.232-0.29 1.348 0.206 1.421 0.528 0.002 0.016 0.002 0.032 0 0.048-0.021 0.318-0.057 0.636-0.11 0.95l-0.299 1.658-0.43 2.154-0.299 1.51c-0.283 1.33-0.75 3.695-1.049 4.223-0.128 0.227-0.288 0.434-0.477 0.612-0.357 0.324-0.756 0.599-1.185 0.818-1.274 0.697-1.479-0.66-1.127-3.057l0.745-3.621 0.362-1.731z"></path>
<path fill="#e24547" style="fill: var(--color1, #e24547)" opacity="0.150646" d="M16 23.684v-15.111h9.778c0.491 0 0.889 0.398 0.889 0.889v13.333c0 0.491-0.398 0.889-0.889 0.889h-9.778z"></path>
<path fill="#e24547" style="fill: var(--color1, #e24547)" d="M16.444 5.333c0.736 0 1.333 0.597 1.333 1.333v4.572l1.245 0c0.295 0 0.533 0.239 0.533 0.533v5.156c0 0.295-0.239 0.533-0.533 0.533l-1.245-0v0.889l4 0c0.245 0 0.445 0.199 0.445 0.444s-0.199 0.445-0.445 0.445l-4-0.001v0.889l2.222 0c0.245 0 0.444 0.199 0.444 0.445s-0.199 0.444-0.444 0.444l-2.222-0v3.684c0 0.063-0.004 0.125-0.013 0.187l-0.017 0.092c-0.154 0.72-0.863 1.179-1.583 1.024l-10.129-2.171c-0.41-0.088-0.703-0.45-0.703-0.869v-14.563c0-0.419 0.293-0.781 0.703-0.869l10.129-2.171c0.092-0.020 0.185-0.030 0.279-0.030zM24.444 20.128c0.245 0 0.445 0.199 0.445 0.445s-0.199 0.444-0.445 0.444h-2.667c-0.245 0-0.444-0.199-0.444-0.444s0.199-0.445 0.444-0.445h2.667zM24.444 18.351c0.245 0 0.445 0.199 0.445 0.444s-0.199 0.445-0.445 0.445h-0.889c-0.245 0-0.445-0.199-0.445-0.445s0.199-0.444 0.445-0.444h0.889zM24.444 16.573c0.245 0 0.445 0.199 0.445 0.444s-0.199 0.444-0.445 0.444h-3.555c-0.245 0-0.445-0.199-0.445-0.444s0.199-0.444 0.445-0.444h3.555zM20.889 14.795c0.245 0 0.444 0.199 0.444 0.445s-0.199 0.444-0.444 0.444c-0.245 0-0.445-0.199-0.445-0.444s0.199-0.445 0.445-0.445zM24.444 14.795c0.245 0 0.445 0.199 0.445 0.445s-0.199 0.444-0.445 0.444h-1.778c-0.245 0-0.444-0.199-0.444-0.444s0.199-0.445 0.444-0.445h1.778zM24.444 13.017c0.245 0 0.445 0.199 0.445 0.444s-0.199 0.445-0.445 0.445h-3.555c-0.245 0-0.445-0.199-0.445-0.445s0.199-0.444 0.445-0.444h3.555zM22.667 11.24c0.245 0 0.444 0.199 0.444 0.444s-0.199 0.444-0.444 0.444h-1.778c-0.245 0-0.445-0.199-0.445-0.444s0.199-0.444 0.445-0.444h1.778z"></path>
</symbol>
</defs>
</svg>
